<svg id="Layer_1" data-name="Layer 1" xmlns="http://www.w3.org/2000/svg" width="70" height="18" viewBox="0 0 190 49.216">
  <g>
    <path d="M59.316,9.121,56.693,1.689a1.016,1.016,0,0,0-.955-.676H12.667a1.016,1.016,0,0,0-.956.676L9.088,9.121a1.014,1.014,0,0,0,.956,1.35h2.371v31.99A5.749,5.749,0,0,0,18.157,48.2h32.09a5.749,5.749,0,0,0,5.742-5.742V10.471H58.36a1.013,1.013,0,0,0,.956-1.35Z" fill="#8373ce"/>
    <path d="M39.1,19.637a5.911,5.911,0,1,1,5.911,5.912A5.912,5.912,0,0,1,39.1,19.637Z" fill="#fff"/>
    <path d="M46.308,19a1.351,1.351,0,0,1-1.351-1.351,1.336,1.336,0,0,1,.116-.544c-.021,0-.041,0-.062,0a2.534,2.534,0,1,0,2.534,2.533A2.506,2.506,0,0,0,47.3,18.56,1.341,1.341,0,0,1,46.308,19Z" fill="#261865"/>
    <path d="M11.664,30.843C3.183,29.168.479,23.858,1.1,21.984c2.19-6.642,34.809-2.319,30.621,13.967-.608,2.36-3.005,3.809-6.1,4.5-7.528,1.688-19.184-1.085-19.231-6.041-.012-1.271,1.911-3.769,6.467-3.365C12.856,31.048,14.084,31.321,11.664,30.843Z" fill="#fff"/>
    <polygon points="74.623 38.754 82.998 38.754 82.998 37.296 74.623 37.296 74.623 31.535 84.016 31.535 84.016 30.055 72.911 30.055 72.911 46.25 84.363 46.25 84.363 44.77 74.623 44.77 74.623 38.754" fill="#261865"/>
    <polygon points="102.201 30.055 100.35 30.055 95.491 36.672 90.609 30.055 88.643 30.055 94.404 37.921 88.25 46.25 90.216 46.25 95.422 39.124 100.651 46.25 102.641 46.25 96.463 37.875 102.201 30.055" fill="#261865"/>
    <path d="M113.491,30.055h-6.062v16.2h1.712V41.137h4.35c4.118,0,6.617-2.082,6.617-5.53C120.108,32.137,117.609,30.055,113.491,30.055Zm-.046,9.578h-4.3v-8.1h4.3c3.239,0,4.951,1.481,4.951,4.072C118.4,38.152,116.684,39.633,113.445,39.633Z" fill="#261865"/>
    <polygon points="146.875 38.754 155.251 38.754 155.251 37.296 146.875 37.296 146.875 31.535 156.269 31.535 156.269 30.055 145.163 30.055 145.163 46.25 156.616 46.25 156.616 44.77 146.875 44.77 146.875 38.754" fill="#261865"/>
    <path d="M163.486,34.312c0-1.62,1.319-2.939,4.28-2.939a8.342,8.342,0,0,1,4.443,1.342l.578-1.365a9.144,9.144,0,0,0-5.021-1.434c-4.118,0-5.969,2.059-5.969,4.442,0,5.993,9.972,3.262,9.972,7.705,0,1.6-1.319,2.869-4.35,2.869a7.952,7.952,0,0,1-5.344-1.967l-.671,1.319a8.783,8.783,0,0,0,6.015,2.105c4.142,0,6.039-2.036,6.039-4.419C173.458,36.07,163.486,38.754,163.486,34.312Z" fill="#261865"/>
    <path d="M180.028,34.312c0-1.62,1.319-2.939,4.28-2.939a8.339,8.339,0,0,1,4.442,1.342l.579-1.365a9.146,9.146,0,0,0-5.021-1.434c-4.118,0-5.969,2.059-5.969,4.442,0,5.993,9.972,3.262,9.972,7.705,0,1.6-1.319,2.869-4.35,2.869a7.95,7.95,0,0,1-5.344-1.967l-.671,1.319a8.783,8.783,0,0,0,6.015,2.105c4.142,0,6.039-2.036,6.039-4.419C190,36.07,180.028,38.754,180.028,34.312Z" fill="#261865"/>
    <polygon points="121.475 3.189 117.546 15.244 113.777 3.189 108.912 3.189 104.956 15.137 101.188 3.189 95.735 3.189 101.802 21.899 107.469 21.899 111.211 10.513 114.792 21.899 120.459 21.899 126.527 3.189 121.475 3.189" fill="#261865"/>
    <polygon points="168.485 17.81 158.703 17.81 158.703 14.389 167.015 14.389 167.015 10.433 158.703 10.433 158.703 7.279 168.138 7.279 168.138 3.189 153.464 3.189 153.464 21.899 168.485 21.899 168.485 17.81" fill="#261865"/>
    <path d="M178.052,16.928h2.887l3.394,4.971H190l-4.036-5.88a6.21,6.21,0,0,0,3.662-5.907c0-4.276-3.208-6.923-8.313-6.923H172.76V21.9h5.292Zm0-9.569h2.94c2.192,0,3.288,1.016,3.288,2.753,0,1.71-1.1,2.726-3.288,2.726h-2.94Z" fill="#261865"/>
    <path d="M83.308,22.274a11.8,11.8,0,0,0,3.934-.655l1.843,1.843,3.738-2.443-1.786-1.785a9.4,9.4,0,0,0,2.669-6.69c0-5.613-4.411-9.729-10.4-9.729s-10.4,4.116-10.4,9.729S77.321,22.274,83.308,22.274Zm0-15.075a5.01,5.01,0,0,1,5.052,5.345,5.72,5.72,0,0,1-.871,3.141l-2.07-2.069-3.737,2.443L83.5,17.881c-.066,0-.13.009-.2.009a5.011,5.011,0,0,1-5.052-5.346A5.01,5.01,0,0,1,83.308,7.2Z" fill="#261865"/>
    <path d="M148.467,21.019l-1.786-1.785a9.4,9.4,0,0,0,2.669-6.69c0-5.613-4.41-9.729-10.4-9.729s-10.4,4.116-10.4,9.729,4.41,9.73,10.4,9.73a11.8,11.8,0,0,0,3.934-.655l1.843,1.843Zm-9.515-3.129a5.01,5.01,0,0,1-5.051-5.346,5.06,5.06,0,1,1,10.1,0,5.711,5.711,0,0,1-.871,3.141l-2.069-2.069-3.738,2.443,1.822,1.822C139.082,17.883,139.018,17.89,138.952,17.89Z" fill="#261865"/>
    <path d="M135.1,40.7a5.021,5.021,0,0,0,3.7-5.091c0-3.47-2.5-5.552-6.617-5.552h-6.061v16.2h1.712V41.114h4.349a11.353,11.353,0,0,0,1.3-.07l3.7,5.206h1.874Zm-2.962-1.042h-4.3V31.535h4.3c3.239,0,4.951,1.481,4.951,4.072C137.089,38.152,135.377,39.656,132.138,39.656Z" fill="#261865"/>
  </g>
  <path d="M62.148,18.859,57,14.571V11.485H58.36a2.028,2.028,0,0,0,1.912-2.7L57.649,1.352A2.027,2.027,0,0,0,55.738,0H12.667a2.025,2.025,0,0,0-1.911,1.352L8.133,8.783a2.027,2.027,0,0,0,1.911,2.7H11.4v6.551c-5.514-.367-10.3.711-11.267,3.63-.418,1.269.151,3.111,1.485,4.807,1.622,2.062,6.709,6.749,18.853,5.761a1.013,1.013,0,0,0-.164-2.02c-11.167.91-15.676-3.19-17.1-4.994C2.127,23.84,1.929,22.7,2.06,22.3c.783-2.374,8.585-3.267,16.574-.924,3.443,1.009,14.494,5.025,12.1,14.321A1.013,1.013,0,1,0,32.7,36.2c1.919-7.462-3.126-13.732-13.5-16.772a37.343,37.343,0,0,0-5.776-1.2V11.485H54.976V42.461a4.735,4.735,0,0,1-4.729,4.729H18.157a4.735,4.735,0,0,1-4.729-4.729V41.035a29.263,29.263,0,0,0,7.313.931,23.535,23.535,0,0,0,5.1-.524,1.013,1.013,0,1,0-.444-1.977c-5.468,1.226-13.19-.017-16.525-2.661A3.229,3.229,0,0,1,7.4,34.4a1.014,1.014,0,1,0-2.027.019,5.193,5.193,0,0,0,2.238,3.969A13.785,13.785,0,0,0,11.4,40.4v2.062a6.755,6.755,0,0,0,6.755,6.755h32.09A6.755,6.755,0,0,0,57,42.461V24.7l5.145-4.288A1.012,1.012,0,0,0,62.148,18.859ZM12.667,2.027H55.738L58.36,9.458H10.044Z" fill="#261865"/>
</svg>
